<svg width="31" height="30" viewBox="0 0 31 30" fill="none" xmlns="http://www.w3.org/2000/svg">
<g filter="url(#filter0_d_2_476)">
<ellipse cx="15.8767" cy="11.1954" rx="11.1233" ry="10.8043" fill="#FFB400"/>
<g clip-path="url(#clip0_2_476)">
<path d="M20.1967 10.9706C20.1523 10.1439 19.8563 9.34859 19.3461 8.68547C19.1907 8.84809 19.0245 9.00072 18.8487 9.1424C18.3084 9.57824 17.7048 9.93398 17.0573 10.1981C17.1476 10.3819 17.2303 10.5599 17.3033 10.728V10.7296C17.3239 10.7765 17.3437 10.8238 17.3628 10.8714C18.1814 10.7821 19.0444 10.8147 19.8809 10.9244C19.9923 10.9391 20.0972 10.9549 20.1967 10.9706ZM15.122 7.05785C15.649 7.77905 16.1349 8.52771 16.5776 9.30048C17.2389 9.04733 17.7856 8.72801 18.2257 8.37244C18.3785 8.25014 18.5223 8.11764 18.6562 7.97591C17.8781 7.34026 16.8936 6.99237 15.8769 6.99377C15.6238 6.99361 15.3713 7.01487 15.122 7.05732V7.05785ZM11.688 10.1434C12.0563 10.1344 12.4242 10.1129 12.791 10.0788C13.6776 10.0018 14.5566 9.85747 15.42 9.64712C14.9688 8.88568 14.4816 8.14488 13.96 7.42707C13.403 7.69513 12.9117 8.07644 12.5197 8.54512C12.1277 9.01381 11.844 9.55891 11.688 10.1434ZM12.5153 13.8398C12.7251 13.5421 13.0008 13.207 13.3669 12.8425C14.1531 12.0599 15.0809 11.4507 16.1548 11.1145L16.1883 11.1051C16.0991 10.9139 16.0153 10.7432 15.931 10.5825C14.9382 10.8635 13.8925 11.0389 12.8505 11.1298C12.3422 11.1744 11.8864 11.1939 11.5512 11.197C11.5502 12.1595 11.8909 13.0929 12.5158 13.8398H12.5153ZM17.5017 15.0898C17.2932 14.0684 16.9981 13.0656 16.6193 12.0914C15.5368 12.4733 14.6743 13.0316 14.0076 13.6975C13.7386 13.9614 13.4998 14.2528 13.2955 14.5667C14.041 15.1071 14.9467 15.3984 15.8769 15.3971C16.4338 15.3979 16.9855 15.2939 17.5017 15.0909V15.0898ZM18.5145 14.5252C19.3587 13.8949 19.9338 12.9841 20.1296 11.9675C19.9458 11.9228 19.7127 11.8782 19.4564 11.8435C18.8866 11.7638 18.3084 11.758 17.7369 11.8262C18.0587 12.7079 18.3185 13.6099 18.5145 14.5258V14.5252ZM15.8769 16.4475C12.8905 16.4475 10.4697 14.0962 10.4697 11.1954C10.4697 8.29471 12.8905 5.94336 15.8769 5.94336C18.8633 5.94336 21.284 8.29471 21.284 11.1954C21.284 14.0962 18.8633 16.4475 15.8769 16.4475Z" fill="#2B2B2B"/>
</g>
</g>
<defs>
<filter id="filter0_d_2_476" x="0.753418" y="0.391113" width="30.2466" height="29.6084" filterUnits="userSpaceOnUse" color-interpolation-filters="sRGB">
<feFlood flood-opacity="0" result="BackgroundImageFix"/>
<feColorMatrix in="SourceAlpha" type="matrix" values="0 0 0 0 0 0 0 0 0 0 0 0 0 0 0 0 0 0 127 0" result="hardAlpha"/>
<feOffset dy="4"/>
<feGaussianBlur stdDeviation="2"/>
<feComposite in2="hardAlpha" operator="out"/>
<feColorMatrix type="matrix" values="0 0 0 0 0 0 0 0 0 0 0 0 0 0 0 0 0 0 0.25 0"/>
<feBlend mode="normal" in2="BackgroundImageFix" result="effect1_dropShadow_2_476"/>
<feBlend mode="normal" in="SourceGraphic" in2="effect1_dropShadow_2_476" result="shape"/>
</filter>
<clipPath id="clip0_2_476">
<rect width="12.9772" height="12.605" fill="white" transform="translate(9.38818 4.89307)"/>
</clipPath>
</defs>
</svg>
