<svg width="23" height="22" viewBox="0 0 23 22" fill="none" xmlns="http://www.w3.org/2000/svg">
<ellipse cx="11.2737" cy="11.1954" rx="11.1233" ry="10.8043" fill="#FFB400"/>
<g clip-path="url(#clip0_2_460)">
<path d="M11.2739 5.94336C12.743 5.94336 12.9263 5.94861 13.5027 5.97487C14.0785 6.00113 14.4706 6.08884 14.8155 6.21909C15.1724 6.3525 15.473 6.53317 15.7737 6.82466C16.0486 7.08721 16.2614 7.40479 16.3971 7.75532C16.5307 8.08988 16.6215 8.47118 16.6486 9.03053C16.674 9.5904 16.681 9.76844 16.681 11.1954C16.681 12.6224 16.6756 12.8005 16.6486 13.3603C16.6215 13.9197 16.5307 14.3005 16.3971 14.6355C16.2618 14.9863 16.049 15.3039 15.7737 15.5662C15.5033 15.8332 15.1764 16.0398 14.8155 16.1718C14.4711 16.3015 14.0785 16.3897 13.5027 16.416C12.9263 16.4407 12.743 16.4475 11.2739 16.4475C9.80473 16.4475 9.62143 16.4423 9.04502 16.416C8.46916 16.3897 8.07714 16.3015 7.73217 16.1718C7.37115 16.0402 7.04412 15.8335 6.77402 15.5662C6.49902 15.3037 6.28626 14.9861 6.15057 14.6355C6.01648 14.301 5.92618 13.9197 5.89914 13.3603C5.87373 12.8005 5.8667 12.6224 5.8667 11.1954C5.8667 9.76844 5.87211 9.5904 5.89914 9.03053C5.92618 8.47066 6.01648 8.09041 6.15057 7.75532C6.28588 7.40458 6.49869 7.0869 6.77402 6.82466C7.0442 6.55745 7.3712 6.35078 7.73217 6.21909C8.07714 6.08884 8.46862 6.00113 9.04502 5.97487C9.62143 5.95019 9.80473 5.94336 11.2739 5.94336ZM11.2739 8.5694C10.5568 8.5694 9.86915 8.84607 9.36214 9.33854C8.85512 9.83102 8.57028 10.499 8.57028 11.1954C8.57028 11.8919 8.85512 12.5598 9.36214 13.0523C9.86915 13.5448 10.5568 13.8215 11.2739 13.8215C11.9909 13.8215 12.6786 13.5448 13.1856 13.0523C13.6926 12.5598 13.9774 11.8919 13.9774 11.1954C13.9774 10.499 13.6926 9.83102 13.1856 9.33854C12.6786 8.84607 11.9909 8.5694 11.2739 8.5694ZM14.7885 8.43809C14.7885 8.26398 14.7173 8.09699 14.5905 7.97387C14.4638 7.85075 14.2919 7.78158 14.1126 7.78158C13.9334 7.78158 13.7614 7.85075 13.6347 7.97387C13.5079 8.09699 13.4367 8.26398 13.4367 8.43809C13.4367 8.61221 13.5079 8.7792 13.6347 8.90232C13.7614 9.02543 13.9334 9.0946 14.1126 9.0946C14.2919 9.0946 14.4638 9.02543 14.5905 8.90232C14.7173 8.7792 14.7885 8.61221 14.7885 8.43809ZM11.2739 9.61981C11.7041 9.61981 12.1167 9.78581 12.4209 10.0813C12.7251 10.3768 12.896 10.7776 12.896 11.1954C12.896 11.6133 12.7251 12.0141 12.4209 12.3096C12.1167 12.6051 11.7041 12.7711 11.2739 12.7711C10.8436 12.7711 10.431 12.6051 10.1268 12.3096C9.82261 12.0141 9.65171 11.6133 9.65171 11.1954C9.65171 10.7776 9.82261 10.3768 10.1268 10.0813C10.431 9.78581 10.8436 9.61981 11.2739 9.61981Z" fill="#2B2B2B"/>
</g>
<defs>
<clipPath id="clip0_2_460">
<rect width="12.9772" height="12.605" fill="white" transform="translate(4.78516 4.89307)"/>
</clipPath>
</defs>
</svg>
