<svg width="23" height="22" viewBox="0 0 23 22" fill="none" xmlns="http://www.w3.org/2000/svg">
<ellipse cx="11.5754" cy="11.1954" rx="11.1233" ry="10.8043" fill="#FFB400"/>
<g clip-path="url(#clip0_2_468)">
<path d="M8.83962 7.5192C8.83948 7.79779 8.7254 8.06491 8.52249 8.2618C8.31958 8.4587 8.04446 8.56923 7.75765 8.56909C7.47083 8.56895 7.19583 8.45815 6.99312 8.26106C6.79041 8.06397 6.67661 7.79674 6.67676 7.51815C6.6769 7.23956 6.79097 6.97244 6.99388 6.77555C7.19679 6.57866 7.47192 6.46812 7.75873 6.46826C8.04554 6.4684 8.32055 6.5792 8.52326 6.77629C8.72596 6.97338 8.83976 7.24061 8.83962 7.5192ZM8.87206 9.34692H6.7092V15.9225H8.87206V9.34692ZM12.2894 9.34692H10.1373V15.9225H12.2678V12.4719C12.2678 10.5496 14.847 10.3711 14.847 12.4719V15.9225H16.9828V11.7576C16.9828 8.51709 13.1653 8.63789 12.2678 10.2293L12.2894 9.34692Z" fill="#2B2B2B"/>
</g>
<defs>
<clipPath id="clip0_2_468">
<rect width="12.9772" height="12.605" fill="white" transform="translate(5.08691 4.89307)"/>
</clipPath>
</defs>
</svg>
