<svg width="23" height="22" viewBox="0 0 23 22" fill="none" xmlns="http://www.w3.org/2000/svg">
<ellipse cx="11.4246" cy="11.1954" rx="11.1233" ry="10.8043" fill="#FFB400"/>
<g clip-path="url(#clip0_2_464)">
<path d="M16.9194 7.8634C16.5065 8.04076 16.0688 8.15724 15.6206 8.20898C16.093 7.93453 16.4466 7.50259 16.6155 6.99365C16.1721 7.24996 15.686 7.42958 15.1793 7.52674C14.839 7.17305 14.3879 6.93849 13.8962 6.85951C13.4045 6.78053 12.8996 6.86156 12.4602 7.09C12.0208 7.31845 11.6714 7.68151 11.4663 8.12274C11.2612 8.56397 11.212 9.05865 11.3262 9.52988C10.427 9.48611 9.54742 9.25915 8.74443 8.86374C7.94144 8.46833 7.23304 7.91332 6.66522 7.23472C6.46424 7.57004 6.35861 7.95123 6.35918 8.33923C6.35918 9.10079 6.75823 9.77358 7.36491 10.1675C7.00588 10.1565 6.65475 10.0623 6.3408 9.8928V9.92011C6.3409 10.4273 6.52159 10.9189 6.85223 11.3114C7.18287 11.704 7.6431 11.9734 8.1549 12.074C7.82161 12.1617 7.47214 12.1746 7.13294 12.1118C7.27724 12.5484 7.55849 12.9302 7.93731 13.2038C8.31612 13.4773 8.77354 13.629 9.24552 13.6375C8.77644 13.9954 8.23934 14.2599 7.66494 14.416C7.09054 14.5721 6.4901 14.6166 5.89795 14.5472C6.93163 15.1929 8.13494 15.5357 9.36394 15.5346C13.5237 15.5346 15.7984 12.1874 15.7984 9.28461C15.7984 9.19007 15.7957 9.09448 15.7914 9.001C16.2342 8.69016 16.6163 8.30511 16.9199 7.86392L16.9194 7.8634Z" fill="#2B2B2B"/>
</g>
<defs>
<clipPath id="clip0_2_464">
<rect width="12.9772" height="12.605" fill="white" transform="translate(4.93604 4.89307)"/>
</clipPath>
</defs>
</svg>
