<svg width="23" height="22" viewBox="0 0 23 22" fill="none" xmlns="http://www.w3.org/2000/svg">
<ellipse cx="11.7263" cy="11.1954" rx="11.1233" ry="10.8043" fill="#FFB400"/>
<g clip-path="url(#clip0_2_472)">
<path d="M16.886 8.30562C17.1332 9.24154 17.1332 11.1953 17.1332 11.1953C17.1332 11.1953 17.1332 13.1491 16.886 14.085C16.7487 14.6023 16.347 15.0094 15.8381 15.147C14.9141 15.397 11.726 15.397 11.726 15.397C11.726 15.397 8.53957 15.397 7.61386 15.147C7.10288 15.0073 6.70167 14.6008 6.56595 14.085C6.31885 13.1491 6.31885 11.1953 6.31885 11.1953C6.31885 11.1953 6.31885 9.24154 6.56595 8.30562C6.7033 7.78829 7.10505 7.38126 7.61386 7.24365C8.53957 6.99365 11.726 6.99365 11.726 6.99365C11.726 6.99365 14.9141 6.99365 15.8381 7.24365C16.3491 7.38336 16.7503 7.78987 16.886 8.30562ZM10.6446 13.0335L13.8889 11.1953L10.6446 9.35708V13.0335Z" fill="#2B2B2B"/>
</g>
<defs>
<clipPath id="clip0_2_472">
<rect width="12.9772" height="12.605" fill="white" transform="translate(5.2373 4.89307)"/>
</clipPath>
</defs>
</svg>
