<svg width="68" height="70" viewBox="0 0 68 70" fill="none" xmlns="http://www.w3.org/2000/svg">
<path d="M63.2188 8.11035H4.78125C3.79531 8.11145 2.85007 8.5066 2.1529 9.2091C1.45574 9.9116 1.06359 10.8641 1.0625 11.8576V49.3298C1.06359 50.3233 1.45574 51.2758 2.1529 51.9783C2.85007 52.6808 3.79531 53.0759 4.78125 53.077H26.0552L24.7802 56.289H19.125C18.8432 56.289 18.573 56.4017 18.3737 56.6025C18.1744 56.8033 18.0625 57.0756 18.0625 57.3596V59.5009H11.6875C11.4057 59.5009 11.1355 59.6137 10.9362 59.8144C10.7369 60.0152 10.625 60.2875 10.625 60.5715C10.625 60.8554 10.7369 61.1278 10.9362 61.3285C11.1355 61.5293 11.4057 61.6421 11.6875 61.6421H56.3125C56.5943 61.6421 56.8645 61.5293 57.0638 61.3285C57.2631 61.1278 57.375 60.8554 57.375 60.5715C57.375 60.2875 57.2631 60.0152 57.0638 59.8144C56.8645 59.6137 56.5943 59.5009 56.3125 59.5009H49.9375V57.3596C49.9375 57.0756 49.8256 56.8033 49.6263 56.6025C49.427 56.4017 49.1568 56.289 48.875 56.289H43.2198L41.9448 53.077H63.2188C64.2047 53.0759 65.1499 52.6808 65.8471 51.9783C66.5443 51.2758 66.9364 50.3233 66.9375 49.3298V11.8576C66.9364 10.8641 66.5443 9.9116 65.8471 9.2091C65.1499 8.5066 64.2047 8.11145 63.2188 8.11035ZM47.8125 58.4302V59.5009H20.1875V58.4302H47.8125ZM27.0698 56.289L28.3448 53.077H39.6552L40.9302 56.289H27.0698ZM64.8125 49.3298C64.8121 49.7556 64.6441 50.1639 64.3453 50.465C64.0465 50.7661 63.6413 50.9354 63.2188 50.9358H4.78125C4.35867 50.9354 3.9535 50.7661 3.65469 50.465C3.35588 50.1639 3.18785 49.7556 3.1875 49.3298V46.6532H64.8125V49.3298ZM64.8125 44.512H3.1875V11.8576C3.18785 11.4318 3.35588 11.0235 3.65469 10.7224C3.9535 10.4213 4.35867 10.252 4.78125 10.2516H63.2188C63.6413 10.252 64.0465 10.4213 64.3453 10.7224C64.6441 11.0235 64.8121 11.4318 64.8125 11.8576V44.512Z" fill="#FFB400"/>
<path d="M29.1671 35.7711C29.2838 35.8483 29.4144 35.9015 29.5514 35.9278C29.6885 35.9541 29.8294 35.9529 29.966 35.9243C30.1026 35.8957 30.2323 35.8403 30.3477 35.7612C30.4631 35.6821 30.5618 35.5809 30.6384 35.4633L39.0056 22.6157C39.1602 22.3783 39.2149 22.0887 39.1577 21.8107C39.1005 21.5327 38.936 21.2889 38.7004 21.1331C38.4648 20.9773 38.1774 20.9222 37.9015 20.9798C37.6256 21.0375 37.3837 21.2033 37.2291 21.4407L28.8619 34.2883C28.7853 34.4058 28.7324 34.5374 28.7063 34.6756C28.6802 34.8137 28.6813 34.9557 28.7096 35.0934C28.738 35.2311 28.793 35.3618 28.8715 35.4781C28.9499 35.5944 29.0504 35.694 29.1671 35.7711Z" fill="#FFB400"/>
<path d="M40.7573 35.6986C40.9738 35.8803 41.2531 35.968 41.5337 35.9423C41.8143 35.9165 42.0733 35.7795 42.2537 35.5614L47.5662 29.1376C47.7253 28.9452 47.8124 28.7027 47.8124 28.4522C47.8124 28.2018 47.7253 27.9593 47.5662 27.7669L42.2537 21.3431C42.1647 21.2342 42.0551 21.144 41.9314 21.0779C41.8077 21.0118 41.6723 20.971 41.5328 20.9578C41.3934 20.9446 41.2528 20.9593 41.119 21.0011C40.9853 21.0429 40.861 21.1109 40.7534 21.2012C40.6459 21.2916 40.5571 21.4024 40.4921 21.5275C40.4272 21.6525 40.3875 21.7892 40.3752 21.9298C40.3629 22.0703 40.3783 22.212 40.4205 22.3465C40.4627 22.481 40.5309 22.6059 40.6212 22.7137L45.3668 28.4522L40.6212 34.1907C40.4408 34.4088 40.3538 34.6903 40.3793 34.973C40.4049 35.2558 40.5408 35.5168 40.7573 35.6986Z" fill="#FFB400"/>
<path d="M25.7462 35.5614C25.8352 35.6703 25.9448 35.7604 26.0685 35.8265C26.1922 35.8926 26.3276 35.9335 26.4671 35.9466C26.6065 35.9598 26.7471 35.9451 26.8809 35.9033C27.0146 35.8615 27.1389 35.7935 27.2465 35.7032C27.354 35.6129 27.4428 35.502 27.5078 35.377C27.5727 35.252 27.6124 35.1152 27.6247 34.9747C27.637 34.8341 27.6216 34.6925 27.5794 34.5579C27.5372 34.4234 27.469 34.2986 27.3787 34.1907L22.6331 28.4522L27.3787 22.7137C27.469 22.6059 27.5372 22.481 27.5794 22.3465C27.6216 22.212 27.637 22.0703 27.6247 21.9298C27.6124 21.7892 27.5727 21.6525 27.5078 21.5275C27.4428 21.4024 27.354 21.2916 27.2465 21.2012C27.1389 21.1109 27.0146 21.0429 26.8809 21.0011C26.7471 20.9593 26.6065 20.9446 26.4671 20.9578C26.3276 20.971 26.1922 21.0118 26.0685 21.0779C25.9448 21.144 25.8352 21.2342 25.7462 21.3431L20.4337 27.7669C20.2746 27.9593 20.1875 28.2018 20.1875 28.4522C20.1875 28.7027 20.2746 28.9452 20.4337 29.1376L25.7462 35.5614Z" fill="#FFB400"/>
</svg>
