<svg width="74" height="76" viewBox="0 0 74 76" fill="none" xmlns="http://www.w3.org/2000/svg">
<path d="M32.375 38.978H41.625V41.3082H32.375V38.978Z" fill="#FFB400"/>
<path d="M35.8438 35.4829H38.1562V44.8037H35.8438V35.4829Z" fill="#FFB400"/>
<path d="M65.9062 38.978H68.2188V41.3082H65.9062V38.978Z" fill="#FFB400"/>
<path d="M56.6562 38.978H58.9688V41.3082H56.6562V38.978Z" fill="#FFB400"/>
<path d="M61.2812 34.3179H63.5938V36.6481H61.2812V34.3179Z" fill="#FFB400"/>
<path d="M61.2812 43.6387H63.5938V45.9689H61.2812V43.6387Z" fill="#FFB400"/>
<path d="M10.6597 21.0649L5.45654 14.5112L10.6597 7.95752L12.4652 9.4139L8.4183 14.5112L12.4652 19.6086L10.6597 21.0649Z" fill="#FFB400"/>
<path d="M28.6527 21.0649L26.8472 19.6086L30.8952 14.5112L26.8472 9.4139L28.6527 7.95752L33.8547 14.5112L28.6527 21.0649Z" fill="#FFB400"/>
<path d="M14.7378 18.403L22.8338 9.08447L24.5738 10.6188L16.4778 19.9379L14.7378 18.403Z" fill="#FFB400"/>
<path d="M9.25 51.7942H4.625V47.1338H6.9375V49.464H9.25V51.7942Z" fill="#FFB400"/>
<path d="M70.5312 2.85986H3.46875C1.55315 2.85986 0 4.4249 0 6.35517V52.9593C0 54.8896 1.55315 56.4546 3.46875 56.4546H27.75V62.2801C27.75 64.2104 26.1969 65.7754 24.2812 65.7754H18.5V72.7661H55.5V65.7754H49.7188C47.8031 65.7754 46.25 64.2104 46.25 62.2801V56.4546H70.5312C72.4469 56.4546 74 54.8896 74 52.9593V6.35517C74 4.4249 72.4469 2.85986 70.5312 2.85986ZM53.1875 68.1057V70.4359H20.8125V68.1057H53.1875ZM37 63.4942C38.9156 63.4942 40.4688 61.9291 40.4688 59.9989V56.4546H43.9375V62.2801C43.942 63.5448 44.3587 64.773 45.1237 65.7754H28.8763C29.6413 64.773 30.058 63.5448 30.0625 62.2801V56.4546H33.5312V59.9989C33.5312 61.9291 35.0844 63.4942 37 63.4942ZM35.8438 59.9989V56.4546H38.1562V59.9989C38.1562 60.6423 37.6385 61.164 37 61.164C36.3615 61.164 35.8438 60.6423 35.8438 59.9989ZM71.6875 52.9593C71.6875 53.6027 71.1698 54.1244 70.5312 54.1244H3.46875C2.83022 54.1244 2.3125 53.6027 2.3125 52.9593V42.4734H25.669C26.6265 47.2163 30.3956 50.8675 35.1369 51.644C39.8776 52.4211 44.6009 50.1615 47.0003 45.9687H52.4349C54.3725 49.3633 57.8774 51.5462 61.7572 51.7749C65.6369 52.0036 69.3699 50.2474 71.6875 47.1036V52.9593ZM62.4375 49.464C58.923 49.4725 55.7112 47.462 54.1608 44.2842L53.8407 43.6385H45.5968L45.2767 44.2842C43.2487 48.4041 38.5419 50.4186 34.1918 49.0277C29.8412 47.6361 27.1482 43.2562 27.8494 38.7113C28.55 34.1669 32.436 30.8172 37 30.8223H62.4375C67.5463 30.8223 71.6875 34.9952 71.6875 40.1432C71.6875 45.2911 67.5463 49.464 62.4375 49.464ZM71.6875 33.1827C69.5128 30.2347 66.083 28.4956 62.4375 28.4921H37C30.6169 28.499 25.4443 33.7112 25.4375 40.1432H2.3125V6.35517C2.3125 5.71175 2.83022 5.19007 3.46875 5.19007H70.5312C71.1698 5.19007 71.6875 5.71175 71.6875 6.35517V33.1827Z" fill="#FFB400"/>
<path d="M47.4062 38.978H52.0312V41.3082H47.4062V38.978Z" fill="#FFB400"/>
<path d="M34.6875 9.85059H43.9375V12.1808H34.6875V9.85059Z" fill="#FFB400"/>
<path d="M48.5625 9.85059H67.0625V12.1808H48.5625V9.85059Z" fill="#FFB400"/>
<path d="M50.875 14.5112H67.0625V16.8414H50.875V14.5112Z" fill="#FFB400"/>
<path d="M37 14.5112H46.25V16.8414H37V14.5112Z" fill="#FFB400"/>
<path d="M34.6875 19.1714H57.8125V21.5016H34.6875V19.1714Z" fill="#FFB400"/>
<path d="M62.4375 19.1714H67.0625V21.5016H62.4375V19.1714Z" fill="#FFB400"/>
<path d="M6.9375 23.832H18.5V26.1622H6.9375V23.832Z" fill="#FFB400"/>
<path d="M23.125 23.832H45.0938V26.1622H23.125V23.832Z" fill="#FFB400"/>
<path d="M48.5625 23.832H67.0625V26.1622H48.5625V23.832Z" fill="#FFB400"/>
<path d="M6.9375 28.4922H25.4375V30.8224H6.9375V28.4922Z" fill="#FFB400"/>
<path d="M6.9375 33.1528H16.1875V35.483H6.9375V33.1528Z" fill="#FFB400"/>
<path d="M18.5 33.1528H23.125V35.483H18.5V33.1528Z" fill="#FFB400"/>
</svg>
