<svg width="82" height="76" viewBox="0 0 82 76" fill="none" xmlns="http://www.w3.org/2000/svg">
<g clip-path="url(#clip0_2_6426)">
<path d="M37.9256 55.1431C37.2654 55.1431 36.7305 55.6415 36.7305 56.2563C36.7305 56.8712 37.2654 57.3696 37.9256 57.3696H43.6623C44.3225 57.3696 44.8574 56.8712 44.8574 56.2563C44.8574 55.6415 44.3225 55.1431 43.6623 55.1431H37.9256Z" fill="#FFB400"/>
<path d="M14.3416 37.8564H22.2417C22.7242 39.0263 23.9399 39.8604 25.3635 39.8604C26.7872 39.8604 28.0029 39.0263 28.4854 37.8564H30.0644C30.7246 37.8564 31.2596 37.358 31.2596 36.7432C31.2596 36.1283 30.7246 35.6299 30.0644 35.6299H28.4854C28.0029 34.46 26.7872 33.626 25.3635 33.626C23.9399 33.626 22.7242 34.46 22.2417 35.6299H14.3416C13.6814 35.6299 13.1465 36.1283 13.1465 36.7432C13.1465 37.358 13.6814 37.8564 14.3416 37.8564ZM25.3635 35.8525C25.8908 35.8525 26.3196 36.252 26.3196 36.7432C26.3196 37.2343 25.8908 37.6338 25.3635 37.6338C24.8362 37.6338 24.4074 37.2343 24.4074 36.7432C24.4074 36.252 24.8362 35.8525 25.3635 35.8525Z" fill="#FFB400"/>
<path d="M14.3416 31.4736H15.8676C16.3501 32.6435 17.5658 33.4775 18.9894 33.4775C20.4131 33.4775 21.6288 32.6435 22.1113 31.4736H30.0644C30.7246 31.4736 31.2596 30.9752 31.2596 30.3604C31.2596 29.7455 30.7246 29.2471 30.0644 29.2471H22.1113C21.6288 28.0772 20.4131 27.2432 18.9894 27.2432C17.5658 27.2432 16.3501 28.0772 15.8676 29.2471H14.3416C13.6814 29.2471 13.1465 29.7455 13.1465 30.3604C13.1465 30.9752 13.6814 31.4736 14.3416 31.4736ZM18.9894 29.4697C19.5167 29.4697 19.9456 29.8692 19.9456 30.3604C19.9456 30.8515 19.5167 31.251 18.9894 31.251C18.4621 31.251 18.0333 30.8515 18.0333 30.3604C18.0333 29.8692 18.4621 29.4697 18.9894 29.4697Z" fill="#FFB400"/>
<path d="M30.3035 21.2314C30.9636 21.2314 31.4987 20.733 31.4987 20.1182C31.4987 19.5033 30.9636 19.0049 30.3035 19.0049C29.6435 19.0049 29.1084 19.5033 29.1084 20.1182C29.1084 20.733 29.6435 21.2314 30.3035 21.2314Z" fill="#FFB400"/>
<path d="M27.0101 21.2314C27.6701 21.2314 28.2052 20.733 28.2052 20.1182C28.2052 19.5033 27.6701 19.0049 27.0101 19.0049C26.35 19.0049 25.8149 19.5033 25.8149 20.1182C25.8149 20.733 26.35 21.2314 27.0101 21.2314Z" fill="#FFB400"/>
<path d="M23.7166 21.2314C24.3767 21.2314 24.9118 20.733 24.9118 20.1182C24.9118 19.5033 24.3767 19.0049 23.7166 19.0049C23.0566 19.0049 22.5215 19.5033 22.5215 20.1182C22.5215 20.733 23.0566 21.2314 23.7166 21.2314Z" fill="#FFB400"/>
<path d="M78.0028 7.49354H77.5552L77.889 7.18256C78.889 6.25112 78.889 4.73542 77.889 3.80398L75.2728 1.36693C74.2729 0.435633 72.6459 0.435633 71.6458 1.36693L65.0692 7.49339H3.58542C1.6085 7.49339 0 8.99157 0 10.8332V57.0662C0 59.3171 1.96577 61.1482 4.38218 61.1482H32.6903V69.0236H26.9305C25.3929 69.0236 24.1418 70.1889 24.1418 71.6212V72.7336C24.1418 74.1659 25.3929 75.3313 26.9305 75.3313H54.6577C56.1953 75.3313 57.4464 74.1659 57.4464 72.7336V71.6212C57.4464 70.1889 56.1953 69.0236 54.6577 69.0236H48.898V61.1482H61.6692C62.3294 61.1482 62.8644 60.6498 62.8644 60.0349C62.8644 59.4201 62.3294 58.9216 61.6692 58.9216H4.38218C3.28377 58.9216 2.39028 58.0894 2.39028 57.0662V53.7709H79.198V57.0662C79.198 58.0894 78.3045 58.9216 77.2061 58.9216H67.2466C66.5864 58.9216 66.0514 59.4201 66.0514 60.0349C66.0514 60.6498 66.5864 61.1482 67.2466 61.1482H77.2061C79.6225 61.1482 81.5882 59.3171 81.5882 57.0662V10.8334C81.5882 8.99187 79.9797 7.49354 78.0028 7.49354V7.49354ZM54.6577 71.2503C54.8775 71.2503 55.0561 71.4168 55.0561 71.6214V72.7337C55.0561 72.9383 54.8775 73.1048 54.6577 73.1048H26.9305C26.7107 73.1048 26.5321 72.9383 26.5321 72.7337V71.6214C26.5321 71.4168 26.7107 71.2503 26.9305 71.2503H54.6577ZM35.0806 61.1485H46.5078V69.0238H35.0806V61.1485ZM73.336 2.94155C73.4042 2.87817 73.5148 2.87832 73.5827 2.94155L76.1988 5.37845C76.2668 5.44184 76.2668 5.545 76.1988 5.60823L73.7025 7.93351L70.8398 5.26683L73.336 2.94155ZM69.1495 6.84131L72.0121 9.50798L71.1786 10.2845L68.316 7.61778L69.1495 6.84131ZM66.6257 9.19226L69.4885 11.8589L55.3458 25.0329L52.4831 22.3662L66.6257 9.19226ZM64.8563 19.3705C66.4818 19.3705 67.8043 20.6024 67.8043 22.1166C67.8043 23.6308 66.4818 24.8627 64.8563 24.8627C63.2307 24.8627 61.9083 23.6308 61.9083 22.1166C61.9083 22.0989 61.9108 22.0818 61.9111 22.0642L64.8005 19.3731C64.8191 19.3728 64.8375 19.3705 64.8563 19.3705ZM53.2704 26.2486L49.7333 27.5944L51.178 24.2995L53.2704 26.2486ZM79.198 51.5446H2.39028V10.8334C2.39028 10.2196 2.92634 9.7201 3.58542 9.7201H62.679L60.8567 11.4176H20.2377C19.5775 11.4176 19.0426 11.9161 19.0426 12.5309C19.0426 13.1457 19.5775 13.6442 20.2377 13.6442H58.4666L50.0367 21.4971C49.7985 21.721 49.6122 21.9822 49.4839 22.2746L46.8143 28.363C46.5694 28.9221 46.7073 29.5594 47.1658 29.9863C47.4735 30.2729 47.8827 30.4249 48.3001 30.4249C48.5047 30.4249 48.711 30.3884 48.9085 30.3134L55.4443 27.8268C55.7493 27.7107 56.0221 27.5427 56.258 27.3297L59.8937 23.9434C60.6769 25.7839 62.6051 27.0894 64.8564 27.0894C67.8 27.0894 70.1947 24.8586 70.1947 22.1167C70.1947 20.0199 68.7935 18.2239 66.8181 17.4942L70.9515 13.6443H74.9853V47.6206H74.3519L70.0207 40.6327C69.6909 40.1001 68.9594 39.9176 68.3882 40.2252C67.8166 40.5326 67.6207 41.2135 67.9507 41.7459L71.5919 47.6206H54.8966L53.106 44.7316L61.4536 31.2634L65.1619 37.2466C65.4921 37.7791 66.223 37.9617 66.7945 37.6541C67.3661 37.3467 67.5619 36.6658 67.2319 36.1334L63.2757 29.7504C62.8953 29.1368 62.2142 28.7704 61.4535 28.7704C60.6927 28.7704 60.0115 29.1368 59.6311 29.7504L51.7257 42.5052L41.5823 26.1398C41.2019 25.5262 40.5208 25.1598 39.7599 25.1598C38.9993 25.1598 38.3181 25.5262 37.9377 26.1398L35.2429 30.4877V18.5544C35.2429 17.1221 33.9919 15.9567 32.4543 15.9567H11.9514C10.4138 15.9567 9.16274 17.1221 9.16274 18.5544V42.8981C9.16274 43.9213 10.0562 44.7536 11.1546 44.7536H26.4013L24.6242 47.6208H6.60307V13.6442H14.6604C15.3206 13.6442 15.8555 13.1457 15.8555 12.5309C15.8555 11.9161 15.3206 11.4176 14.6604 11.4176H6.20469C5.10628 11.4176 4.21279 12.2499 4.21279 13.2731V47.9916C4.21279 49.0148 5.10628 49.8471 6.20469 49.8471H75.3837C76.4821 49.8471 77.3756 49.0148 77.3756 47.9916V13.2731C77.3756 12.2499 76.4821 11.4176 75.3837 11.4176H73.3421L75.1648 9.7201H78.0028C78.6619 9.7201 79.198 10.2196 79.198 10.8334V51.5446ZM32.8531 24.7199V42.5267H11.553V24.7199H32.8531ZM11.553 22.4933V18.5541C11.553 18.3495 11.7317 18.183 11.9514 18.183H32.4547C32.6745 18.183 32.8531 18.3495 32.8531 18.5541V22.4933H11.553ZM29.1614 44.7533H33.2515C34.3499 44.7533 35.2434 43.921 35.2434 42.8978V40.5396C35.5424 40.6732 35.8752 40.7455 36.2239 40.7455C37.0398 40.7455 37.7703 40.3524 38.178 39.6944L40.212 36.4129C40.2735 36.3137 40.3675 36.2928 40.4353 36.2928C40.5033 36.2928 40.5973 36.3137 40.6587 36.4129L41.9126 38.4359C42.3206 39.0943 43.0512 39.4872 43.8672 39.4872C44.6831 39.4872 45.4137 39.0942 45.8215 38.4361L46.1329 37.9338L52.1366 47.6204H27.3843L29.1614 44.7533ZM35.2434 36.8129V34.9405L39.7606 27.6527L44.7527 35.7072L43.8671 37.1361L42.7287 35.2994C42.25 34.5271 41.3926 34.0661 40.4351 34.0661C39.4777 34.0661 38.6204 34.5271 38.1417 35.2994L36.2234 38.3944L35.2434 36.8129Z" fill="#FFB400"/>
</g>
<defs>
<clipPath id="clip0_2_6426">
<rect width="81.5882" height="76" fill="white"/>
</clipPath>
</defs>
</svg>
