<svg width="74" height="76" viewBox="0 0 74 76" fill="none" xmlns="http://www.w3.org/2000/svg">
<g clip-path="url(#clip0_2_6333)">
<path d="M37.0002 0.592773C29.0179 0.592773 22.522 7.39779 22.522 15.7606V37.8761C22.522 46.2405 29.0179 53.0439 37.0002 53.0439C44.9826 53.0439 51.4785 46.2405 51.4785 37.8761V15.7606C51.4785 7.39779 44.9826 0.592773 37.0002 0.592773ZM37.0002 49.8019C31.3119 49.8019 26.6065 45.3068 25.8552 39.4971H48.1437C47.394 45.3084 42.6886 49.8019 37.0002 49.8019ZM48.2611 36.2551H25.7394V15.7606C25.7394 9.18414 30.7907 3.8348 37.0002 3.8348C43.2098 3.8348 48.2611 9.18414 48.2611 15.7606V36.2551Z" fill="#FFB400"/>
<path d="M59.5218 29.771C58.6338 29.771 57.9131 30.4972 57.9131 31.392V37.8761C57.9131 49.4955 48.5312 58.9492 37.0001 58.9492C25.4689 58.9492 16.087 49.4955 16.087 37.8761V31.392C16.087 30.4972 15.3663 29.771 14.4783 29.771C13.5903 29.771 12.8696 30.4972 12.8696 31.392V37.8761C12.8696 50.7356 22.8355 61.2689 35.3914 62.1086V71.9173H27.3479C26.4599 71.9173 25.7392 72.6436 25.7392 73.5384C25.7392 74.4332 26.4599 75.1594 27.3479 75.1594H46.6522C47.5402 75.1594 48.2609 74.4332 48.2609 73.5384C48.2609 72.6436 47.5402 71.9173 46.6522 71.9173H38.6088V62.1086C51.1646 61.2689 61.1305 50.7356 61.1305 37.8761V31.392C61.1305 30.4972 60.4098 29.771 59.5218 29.771Z" fill="#FFB400"/>
</g>
<defs>
<clipPath id="clip0_2_6333">
<rect width="74" height="74.5666" fill="white" transform="translate(0 0.592773)"/>
</clipPath>
</defs>
</svg>
