<svg width="78" height="80" viewBox="0 0 78 80" fill="none" xmlns="http://www.w3.org/2000/svg">
<g clip-path="url(#clip0_2_639)">
<path d="M55.3546 73.9952H74.7125L69.7431 58.9717C68.4435 55.0431 65.1273 52.13 61.0876 51.3668L47.8062 48.8568V45.7598C50.9879 43.4462 53.2335 39.922 53.8852 35.8578C56.8543 35.352 59.1288 32.7595 59.1288 29.6258V20.7519C59.1288 9.56828 50.0984 0.46875 38.9998 0.46875C27.9011 0.46875 18.8708 9.56828 18.8708 20.7519V29.6258C18.8708 32.7557 21.134 35.3634 24.098 35.8743C24.7522 39.9385 27.0104 43.4665 30.1933 45.7788V48.858L16.9107 51.3681C12.8723 52.1312 9.55479 55.0444 8.25521 58.973L3.28711 73.9952H22.645V71.4598H19.2243L21.3491 62.8927L18.9085 62.2791L16.6301 71.4598H6.77698L10.643 59.7742C11.6532 56.719 14.2335 54.4524 17.3749 53.8578L25.3888 52.3442L27.4382 61.6339C26.0996 62.2196 25.1611 63.5608 25.1611 65.1213V75.2629C25.1611 77.3597 26.8544 79.066 28.9353 79.066H49.0643C51.1452 79.066 52.8385 77.3597 52.8385 75.2629V65.1213C52.8385 63.5608 51.9 62.2196 50.5627 61.6339L52.6121 52.3442L60.6259 53.8578C63.7673 54.4524 66.3463 56.719 67.3578 59.7742L71.2226 71.4598H61.3694L59.0911 62.2791L56.6504 62.8927L58.7753 71.4598H55.3546V73.9952ZM50.1374 51.8764L48.4001 59.7539L47.5307 56.2474H42.0368L46.9684 51.2781L50.1374 51.8764ZM46.1947 61.3182H31.8049L32.434 58.7828H45.5656L46.1947 61.3182ZM38.9998 55.7226L32.7095 49.3841V47.2468C34.6268 48.1367 36.7542 48.6413 38.9998 48.6413C41.2467 48.6413 43.3728 48.1304 45.2901 47.2404V49.3841L38.9998 55.7226ZM54.0966 33.1956V26.0572C55.5572 26.582 56.6127 27.9765 56.6127 29.6271C56.6127 31.2776 55.5572 32.6708 54.0966 33.1956ZM23.903 33.2121C22.4386 32.6885 21.3869 31.2789 21.3869 29.6258C21.3869 27.9727 22.4386 26.563 23.903 26.0395V33.2121ZM21.3869 24.588V20.7519C21.3869 10.9653 29.2875 3.00414 38.9998 3.00414C48.7121 3.00414 56.6127 10.9653 56.6127 20.7519V24.588C55.8679 24.02 55.0074 23.6004 54.0563 23.4115C53.8588 21.9144 52.5982 20.7519 51.0596 20.7519C50.2607 20.7519 49.4782 21.079 48.8492 21.7128C46.7243 23.854 44.0321 25.2193 41.1159 25.663L41.1964 25.5007C41.4052 25.0773 41.5159 24.6044 41.5159 24.1316V23.8121C41.5159 22.1248 40.1534 20.7519 38.479 20.7519C37.6801 20.7519 36.8976 21.079 36.3314 21.6482C33.6807 24.3179 30.1644 25.7986 26.4191 25.8227V23.2873H25.1611C23.7395 23.2873 22.4411 23.783 21.3869 24.588ZM26.4191 33.4289V28.3581C30.8362 28.334 34.9853 26.5897 38.1091 23.442C38.4123 23.1352 38.9998 23.3849 38.9998 23.8121V24.1316C38.9998 24.2127 38.9809 24.2939 38.9444 24.3674L36.9642 28.3581H38.9998C43.393 28.3581 47.5219 26.6353 50.6897 23.442C50.9942 23.1352 51.5804 23.3849 51.5804 23.8121V33.4289C51.5804 40.419 45.9368 46.1059 38.9998 46.1059C32.0628 46.1059 26.4191 40.419 26.4191 33.4289ZM31.0312 51.2781L35.9628 56.2474H30.4689L29.5995 59.7539L27.8621 51.8764L31.0312 51.2781ZM28.9353 76.5306C28.2421 76.5306 27.6772 75.9627 27.6772 75.2629V65.1213C27.6772 64.4216 28.2421 63.8536 28.9353 63.8536H32.8491C31.2124 65.4661 30.1933 67.71 30.1933 70.1921C30.1933 72.6743 31.2124 74.9181 32.8491 76.5306H28.9353ZM38.9998 76.5306C35.5313 76.5306 32.7095 73.6871 32.7095 70.1921C32.7095 66.6971 35.5313 63.8536 38.9998 63.8536C42.4683 63.8536 45.2901 66.6971 45.2901 70.1921C45.2901 73.6871 42.4683 76.5306 38.9998 76.5306ZM50.3224 75.2629C50.3224 75.9627 49.7575 76.5306 49.0643 76.5306H45.1505C46.7872 74.9181 47.8062 72.6743 47.8062 70.1921C47.8062 67.71 46.7872 65.4661 45.1505 63.8536H49.0643C49.7575 63.8536 50.3224 64.4216 50.3224 65.1213V75.2629Z" fill="#FFB400"/>
<path d="M38.9998 66.3892C36.9189 66.3892 35.2256 68.0955 35.2256 70.1923C35.2256 72.289 36.9189 73.9954 38.9998 73.9954C41.0806 73.9954 42.774 72.289 42.774 70.1923C42.774 68.0955 41.0806 66.3892 38.9998 66.3892ZM38.9998 71.46C38.3066 71.46 37.7417 70.892 37.7417 70.1923C37.7417 69.4925 38.3066 68.9246 38.9998 68.9246C39.693 68.9246 40.2578 69.4925 40.2578 70.1923C40.2578 70.892 39.693 71.46 38.9998 71.46Z" fill="#FFB400"/>
</g>
<defs>
<clipPath id="clip0_2_639">
<rect width="78" height="78.5972" fill="white" transform="translate(0 0.46875)"/>
</clipPath>
</defs>
</svg>
